<svg xmlns="http://www.w3.org/2000/svg" width="22.269" height="23.957" viewBox="0 0 22.269 23.957">
  <g id="Group_1" data-name="Group 1" transform="translate(-175.568 -745.062)">
    <path id="Path_1" data-name="Path 1" d="M185.968,766.552a4.614,4.614,0,0,1-2.491.94,2.306,2.306,0,0,1-2.838-2.242c-.249-1.737,0-12.428,0-12.428h-1.631a4.63,4.63,0,0,1-1.941-3.431c.033-2.065,1.4-2.848,3.572-2.695a11.8,11.8,0,0,0,2.838,0s1.433.52,1.327.945,4,5.172,5.332,7.132" fill="none" stroke="#fff" stroke-linecap="round" stroke-linejoin="round" stroke-width="3"/>
    <path id="Path_2" data-name="Path 2" d="M186.363,760.2l4.862,5.906a2.655,2.655,0,0,0,2.913,1.03c1.836-.573,2.228-2.016,2.2-4.012s0-14.824,0-14.824a2.422,2.422,0,0,0-3.061-1.536c-2.287.705-2.049,1.536-2.049,1.536" fill="none" stroke="#fff" stroke-linecap="round" stroke-linejoin="round" stroke-width="3"/>
  </g>
</svg>
